<svg width="3412" height="2620" viewBox="0 0 3412 2620" fill="none" xmlns="http://www.w3.org/2000/svg">
<path d="M604.927 43.8465C580.469 56.3356 577.347 58.157 551.588 75.0693C521.927 94.8437 487.321 123.985 469.108 144.54C455.578 159.891 430.6 194.756 430.6 198.139C430.6 198.92 429.039 201.782 426.957 203.863C421.493 210.108 404.061 242.631 395.995 261.365C393.653 266.309 390.011 274.635 387.929 280.099C385.587 285.302 383.766 290.766 383.766 292.328C383.766 293.889 382.205 298.832 380.123 303.516C364.252 340.723 361.39 440.636 374.659 500.739C377.001 511.407 379.863 521.294 381.424 522.595C382.725 524.156 383.766 528.059 383.766 531.442C383.766 534.824 385.587 540.809 387.669 544.451C389.75 548.354 394.174 557.981 397.816 565.787C424.876 624.59 477.694 680.27 538.579 714.095C547.165 718.778 558.613 726.064 564.338 730.227C569.801 734.129 576.306 737.512 578.648 737.512C580.99 737.512 585.153 739.333 587.755 741.415C590.617 743.496 594.78 745.318 597.121 745.318C599.463 745.318 604.927 747.139 609.09 749.22C613.253 751.302 626.523 753.644 638.492 754.684C653.062 755.985 660.347 757.546 661.388 760.148C662.169 761.97 658.266 770.296 652.542 778.622C629.385 812.967 609.09 866.306 610.651 888.942L611.432 900.13L768.846 901.431C881.248 902.472 927.822 903.513 931.465 905.855C943.954 912.88 946.556 918.604 948.637 946.184C958.004 1070.81 962.167 1106.72 966.851 1109.84C968.932 1111.14 992.349 1112.18 1019.15 1112.18H1067.54L1073.01 1103.34C1076.13 1098.66 1078.47 1093.45 1078.47 1091.89C1078.47 1086.17 1097.73 1057.28 1107.35 1048.44C1118.02 1038.81 1121.4 1037.77 1127.91 1041.93C1131.29 1044.02 1131.29 1045.32 1127.13 1051.56C1123.22 1058.07 1113.6 1077.06 1106.83 1092.67C1102.15 1102.82 1099.55 1115.05 1101.11 1118.95C1101.89 1121.03 1105.53 1124.41 1109.43 1126.5C1113.08 1128.32 1127.91 1139.5 1142.22 1151.21C1156.53 1162.92 1174.22 1177.23 1181.25 1182.96C1203.62 1200.91 1265.29 1259.19 1290.53 1286.51C1325.91 1324.5 1411.25 1374.72 1428.95 1367.95C1433.89 1366.13 1436.75 1363.79 1467.2 1337.25C1502.06 1307.07 1513.77 1292.76 1529.38 1260.49C1530.94 1256.85 1533.02 1253.47 1534.06 1252.69C1535.89 1251.13 1538.75 1245.66 1559.04 1205.07C1577.52 1168.39 1581.94 1162.92 1585.58 1172.29C1588.7 1180.61 1586.36 1204.55 1581.42 1217.56C1571.79 1242.8 1556.18 1275.32 1544.99 1293.54C1535.1 1309.67 1504.4 1340.37 1472.14 1366.39C1438.31 1393.45 1424.52 1409.58 1424.52 1421.29C1424.52 1426.49 1425.56 1434.04 1426.87 1438.46C1428.17 1442.89 1431.29 1453.55 1433.63 1462.14C1444.56 1501.43 1446.12 1506.89 1449.5 1516.78C1451.58 1522.76 1453.15 1530.31 1453.15 1533.69C1453.15 1537.33 1454.71 1543.06 1456.53 1546.7C1458.61 1550.6 1460.95 1559.19 1461.73 1565.96C1462.77 1572.72 1464.33 1579.75 1465.37 1581.31C1466.67 1583.13 1468.76 1590.15 1470.58 1597.44C1472.14 1604.46 1475.26 1617.99 1477.6 1627.36C1479.94 1636.73 1483.07 1648.96 1484.11 1654.68C1485.41 1660.4 1487.75 1670.81 1489.57 1678.1C1498.16 1713.22 1501.28 1727.53 1511.69 1778.27C1513.51 1787.64 1517.15 1803.25 1519.23 1813.4C1521.57 1823.28 1523.4 1835.25 1523.4 1839.41C1523.4 1843.84 1524.7 1851.38 1526.26 1856.33C1529.38 1866.47 1535.37 1902.12 1538.75 1930.48C1541.35 1953.64 1551.24 1974.71 1569.19 1994.75C1590.53 2018.69 1604.32 2044.18 1609.52 2069.68C1610.82 2076.19 1612.9 2083.73 1614.2 2086.59C1615.5 2089.46 1618.63 2097 1621.23 2103.51C1624.09 2110.01 1633.2 2122.24 1641.78 2131.09C1655.31 2144.88 1660 2147.74 1676.91 2152.94C1695.64 2158.93 1700.07 2159.19 1776.04 2159.19C1863.2 2159.45 1864.24 2159.19 1864.24 2144.36C1864.24 2127.44 1848.37 2091.54 1834.84 2077.75C1826.26 2068.64 1802.32 2056.67 1792.95 2056.67C1790.09 2056.67 1781.76 2054.85 1774.74 2052.77C1767.71 2050.69 1758.09 2048.87 1753.66 2048.87C1733.89 2048.87 1702.67 2026.23 1692.26 2004.37C1677.95 1974.45 1663.9 1919.03 1663.9 1892.75C1663.9 1884.95 1662.08 1870.38 1660 1860.23C1657.91 1850.34 1656.09 1830.83 1656.09 1817.04C1656.09 1803.25 1654.79 1780.35 1653.49 1766.3C1649.85 1730.4 1648.55 1657.28 1651.15 1624.76C1652.19 1609.67 1654.01 1585.73 1654.79 1571.42C1657.65 1523.28 1668.58 1487.9 1685.75 1471.77C1690.18 1467.6 1712.03 1453.29 1734.15 1440.02C1786.71 1408.54 1811.43 1389.29 1831.2 1365.35C1845.25 1348.18 1864.24 1319.82 1864.24 1316.17C1864.24 1315.13 1866.07 1310.97 1868.15 1306.55C1873.35 1295.36 1882.46 1266.22 1882.46 1260.75C1882.46 1258.41 1883.5 1255.29 1884.8 1253.73C1886.36 1252.43 1888.44 1246.7 1890 1240.98C1891.3 1235.25 1894.95 1224.07 1898.07 1216.26C1901.19 1208.46 1904.31 1199.35 1905.09 1196.23C1905.87 1193.1 1908.74 1188.42 1911.34 1186.08C1918.36 1179.57 1922.53 1184.52 1920.71 1197.27C1919.67 1202.73 1917.32 1218.86 1915.24 1233.17C1907.18 1286.77 1905.61 1293.8 1893.13 1320.34C1879.86 1348.7 1853.32 1385.38 1830.16 1407.5C1809.87 1426.75 1778.9 1450.17 1767.97 1454.59C1759.65 1457.98 1729.99 1471.77 1726.34 1474.11C1724.26 1475.41 1720.62 1477.23 1718.54 1478.27C1703.19 1485.04 1690.44 1501.95 1694.08 1511.32C1695.9 1516 1709.69 1516.78 1719.06 1512.88C1722.44 1511.58 1743.26 1509.23 1765.37 1507.67C1838.23 1502.47 1855.14 1500.65 1860.86 1497.79C1863.98 1495.96 1868.93 1494.66 1871.79 1494.66C1874.91 1494.66 1884.54 1491.28 1893.39 1487.12C1902.49 1482.96 1911.6 1479.05 1913.68 1478.01C1919.67 1475.41 1928.25 1470.21 1932.41 1466.82C1934.24 1465 1943.34 1460.06 1952.45 1455.64C1967.02 1448.35 1972.22 1447.31 1997.98 1446.01C2024 1444.97 2033.89 1445.75 2065.63 1452.25C2072.92 1453.55 2072.92 1453.55 2071.1 1444.97C2070.05 1440.02 2067.45 1432.48 2065.11 1428.32C2063.03 1423.89 2060.43 1418.69 2059.39 1416.61C2058.35 1414.53 2052.62 1403.34 2046.38 1391.89C2034.67 1370.55 2034.41 1369.51 2027.38 1354.16C2008.39 1311.23 2015.67 1266.48 2047.16 1230.31C2057.05 1219.12 2078.12 1202.73 2099.72 1189.46C2123.65 1174.37 2124.17 1174.11 2144.99 1159.8C2171.53 1141.59 2197.55 1128.84 2218.1 1124.15C2239.7 1118.95 2249.33 1118.95 2249.33 1123.63C2249.33 1126.76 2233.71 1137.94 2220.7 1144.45C2215.24 1146.79 2209 1150.95 2190.78 1162.92C2182.2 1168.65 2173.09 1174.37 2170.49 1175.93C2133.54 1197.53 2089.83 1228.75 2071.62 1246.96C2050.8 1267.26 2045.86 1278.97 2045.86 1307.07C2046.12 1331.78 2045.86 1331.52 2078.9 1400.21C2088.53 1419.99 2097.11 1438.46 2098.42 1441.32C2099.46 1444.19 2102.32 1450.95 2104.66 1456.42C2107 1461.88 2108.82 1467.34 2108.82 1468.9C2108.82 1470.47 2110.38 1475.41 2112.21 1479.83C2114.29 1484.52 2117.93 1495.18 2120.53 1503.77C2136.66 1558.41 2154.88 1580.53 2184.54 1580.53C2196.51 1580.53 2200.93 1579.23 2210.04 1572.72C2223.31 1563.09 2239.7 1538.12 2251.41 1510.27C2255.83 1499.35 2258.17 1492.32 2268.58 1455.9C2270.92 1448.35 2272.74 1437.68 2272.74 1432.48C2272.74 1427.27 2274.56 1417.39 2276.65 1410.36C2278.73 1403.34 2280.55 1391.63 2280.55 1384.34C2280.55 1368.47 2287.31 1319.56 2292.52 1299.26C2294.6 1291.46 2296.16 1282.35 2296.16 1279.23C2296.16 1265.7 2314.37 1221.72 2324.52 1210.8C2331.28 1203.51 2339.35 1205.33 2338.57 1213.66C2338.31 1220.68 2334.41 1242.28 2330.24 1260.49C2328.94 1267 2325.82 1283.91 2323.48 1298.22C2321.14 1312.53 2318.02 1331.26 2316.45 1339.85C2315.15 1348.44 2312.81 1364.83 2311.51 1376.28C2307.09 1415.31 2297.46 1465.78 2291.48 1479.83C2289.65 1484 2288.35 1488.94 2288.35 1491.02C2288.35 1493.1 2287.31 1496.75 2285.75 1499.35C2284.45 1501.69 2280.29 1510.27 2276.65 1518.08C2273 1525.89 2267.54 1535.77 2264.94 1540.2C2262.07 1544.36 2258.95 1549.82 2257.91 1551.91C2257.13 1553.99 2253.49 1559.45 2250.11 1563.87C2246.72 1568.3 2244.12 1572.98 2244.12 1574.28C2244.12 1575.58 2251.41 1580.79 2260.25 1585.73C2290.44 1602.9 2313.85 1628.14 2338.57 1670.29C2354.7 1697.61 2353.66 1695.79 2362.51 1708.54C2372.92 1723.89 2399.19 1749.91 2413.24 1759.02C2419.75 1763.44 2433.28 1770.72 2443.17 1775.41C2453.31 1780.35 2463.46 1785.3 2466.06 1786.6C2470.75 1788.94 2484.02 1792.06 2509.51 1796.74C2525.65 1799.87 2555.57 1798.3 2569.36 1793.62C2590.69 1786.6 2597.98 1781.65 2644.55 1743.14C2664.07 1727.27 2675.78 1714.78 2679.94 1705.42C2684.36 1695.53 2684.36 1694.23 2680.46 1685.64C2677.86 1680.7 2671.61 1670.29 2666.15 1663.01C2660.68 1655.46 2655.48 1647.66 2654.44 1645.57C2653.4 1643.49 2650.28 1638.03 2647.42 1633.86C2644.55 1629.44 2640.91 1622.94 2639.35 1618.77C2637.79 1614.87 2635.71 1611.75 2634.41 1611.75C2633.36 1611.75 2631.54 1609.67 2630.76 1607.07C2628.42 1600.82 2625.56 1596.14 2601.88 1561.27C2567.8 1511.32 2568.06 1511.84 2568.32 1489.46C2568.58 1476.45 2569.88 1467.34 2572.74 1462.14C2575.08 1457.72 2577.16 1453.55 2577.16 1452.51C2577.16 1450.43 2590.43 1420.51 2596.42 1408.8C2604.22 1393.71 2609.17 1367.43 2607.61 1348.44C2606.31 1329.7 2604.74 1324.5 2595.12 1303.42C2592.52 1297.7 2588.09 1287.81 2585.23 1281.31C2576.12 1260.75 2568.84 1249.83 2530.07 1198.05C2509.25 1170.21 2487.92 1140.03 2482.46 1131.18C2471.79 1113.49 2456.96 1099.96 2440.56 1093.45C2429.38 1089.03 2398.15 1084.34 2366.15 1082.52C2348.2 1081.48 2344.81 1080.44 2325.82 1068.99C2314.63 1062.23 2304.75 1055.72 2303.96 1054.94C2303.18 1054.16 2285.23 1041.67 2263.64 1027.62C2211.08 992.758 2123.65 927.45 2098.42 904.033C2096.07 901.952 2090.61 897.268 2086.45 893.886C2077.86 886.861 2040.65 854.077 2038.57 851.995C2037.27 850.694 2001.36 819.211 1986.79 806.462C1983.67 803.6 1976.65 797.356 1971.44 792.412C1947.77 770.296 1897.03 737.512 1886.36 737.512C1884.02 737.512 1875.43 735.17 1866.85 732.308C1853.84 727.885 1839.79 726.844 1773.96 724.502C1690.44 721.64 1686.8 721.38 1637.88 715.396C1583.76 708.891 1508.31 694.32 1492.17 687.295C1490.09 686.255 1483.59 684.433 1477.86 683.132C1457.57 678.189 1440.4 672.725 1435.19 670.123C1432.33 668.562 1427.39 667.261 1424 667.261C1420.62 667.261 1416.72 666.22 1415.42 665.179C1413.86 663.878 1398.77 658.414 1381.59 652.95C1364.42 647.747 1346.21 641.762 1341.26 639.941C1332.42 636.558 1316.81 632.135 1287.4 624.069C1279.08 621.728 1267.11 618.345 1260.6 616.264C1254.1 614.182 1245.77 612.621 1242.13 612.621C1238.23 612.621 1230.94 610.8 1226 608.718C1220.8 606.637 1211.95 604.815 1206.23 604.815C1200.5 604.815 1192.7 603.514 1188.53 601.953C1184.63 600.392 1168.5 598.31 1152.63 597.01C1137.01 595.709 1109.69 593.367 1092 591.806C1068.85 589.724 1050.37 589.724 1024.35 591.806C1004.84 593.367 979.34 595.188 967.892 595.969C948.637 597.01 930.684 599.872 893.737 607.417C885.932 608.978 874.223 611.06 867.719 612.361C861.214 613.401 851.847 615.483 846.903 617.044C841.96 618.605 830.772 621.988 822.185 624.329C813.599 626.931 796.166 632.395 783.417 636.558C764.423 642.803 757.398 644.104 743.088 643.063C695.733 639.941 638.492 612.881 597.382 574.373C570.062 549.135 558.093 533.003 543.783 503.341C540.14 495.536 535.977 487.21 534.936 485.128C533.635 482.786 531.814 477.322 531.033 472.639C529.992 468.216 527.911 463.792 526.61 463.012C525.309 461.971 524.268 459.109 524.268 456.507C524.268 453.645 522.707 446.36 520.626 440.375C518.804 434.131 515.682 414.877 513.861 397.444C507.616 334.478 521.406 263.967 550.547 209.327C551.588 207.246 555.231 200.22 558.093 193.716C582.291 143.239 605.968 112.797 655.144 70.6461C673.357 54.7745 676.739 47.229 668.413 39.1631C665.291 36.0408 659.047 35.0001 643.175 35.0001C624.181 35.2603 620.018 36.0408 604.927 43.8465ZM2428.34 1420.51C2432.24 1422.59 2446.55 1428.06 2460.08 1432.48C2473.61 1436.9 2486.88 1442.63 2489.48 1444.71C2499.37 1453.55 2490.78 1468.64 2475.69 1468.64C2454.35 1468.38 2427.56 1450.95 2418.97 1431.44C2411.94 1416.09 2414.81 1412.96 2428.34 1420.51Z" fill="#4D2678"/>
<path d="M187.583 922.507C180.818 927.71 180.818 927.971 181.078 964.657C181.078 984.952 182.119 1014.35 183.42 1030.23C184.721 1045.84 187.063 1087.99 188.364 1123.89C189.925 1159.54 191.746 1193.62 192.527 1199.35C193.828 1208.72 195.909 1255.55 204.235 1437.42C205.536 1468.12 207.878 1510.8 209.439 1532.39C212.821 1580.79 216.724 1660.4 219.847 1734.04C221.148 1764.74 223.229 1806.37 224.79 1826.41C227.912 1869.6 232.596 1968.99 235.198 2043.92C237.019 2097.26 237.019 2097.52 244.044 2107.15L251.33 2116.52L411.866 2116.78C693.652 2117.04 696.774 2117.04 700.677 2111.83C705.36 2105.59 704.059 2051.47 698.856 2045.48C695.733 2041.32 679.341 2041.06 512.56 2041.06H329.647L322.101 2033.78C314.295 2026.75 314.295 2026.49 312.734 1987.72C311.693 1966.13 309.872 1944.53 308.571 1939.59C307.27 1934.64 305.449 1898.74 304.668 1860.23C303.628 1821.46 301.806 1778.27 300.505 1763.96C297.903 1739.24 295.822 1697.35 290.098 1544.1C288.797 1507.67 286.455 1467.6 284.894 1455.37C283.593 1442.89 282.292 1420.25 282.292 1404.64C282.032 1389.03 280.991 1357.54 279.69 1334.65C278.129 1311.75 276.048 1267.26 274.486 1235.77C273.185 1204.29 270.844 1161.62 269.543 1140.81C267.982 1119.99 266.681 1078.88 266.16 1049.22C265.38 996.14 265.38 995.1 271.364 989.375L277.348 983.391L557.573 984.172C711.605 984.432 840.399 985.212 843.781 985.993C855.49 988.855 859.653 1006.03 861.734 1058.07C863.035 1093.19 864.336 1105.68 866.938 1108.54C872.662 1114.27 929.384 1113.75 937.71 1108.02C944.735 1103.08 944.735 1102.3 936.669 1001.6C931.205 930.833 930.945 928.491 923.139 922.246C916.634 917.043 911.951 917.043 555.491 917.043H194.608L187.583 922.507Z" fill="#4D2678"/>
<path d="M2783.75 1046.88C2771.53 1052.34 2768.92 1057.28 2771.27 1069.25C2772.31 1074.98 2776.21 1080.7 2783.49 1086.43C2789.48 1091.37 2801.45 1102.3 2810.03 1110.88C2829.29 1130.14 2834.75 1143.93 2834.75 1172.55C2834.75 1201.17 2830.59 1201.95 2811.07 1177.23C2799.11 1162.14 2788.18 1151.47 2784.28 1151.21C2782.97 1151.21 2779.85 1149.65 2777.77 1147.83C2763.98 1136.12 2712.2 1131.44 2694.25 1140.29C2665.63 1154.34 2651.58 1175.67 2644.81 1215.48C2642.21 1229.53 2642.21 1236.82 2644.55 1245.66C2646.11 1252.17 2647.42 1262.05 2647.42 1267.26C2647.42 1276.88 2656.78 1308.89 2660.95 1313.83C2661.99 1315.13 2663.03 1318.52 2663.03 1321.12C2663.03 1323.72 2664.59 1329.7 2666.67 1334.13C2677.08 1357.8 2678.64 1376.02 2678.64 1471.25C2678.64 1545.14 2679.42 1566.74 2682.54 1578.7C2684.62 1587.03 2686.44 1595.36 2686.44 1597.44C2686.44 1601.34 2699.97 1632.56 2704.92 1640.37C2706.22 1642.45 2708.04 1646.09 2708.82 1648.18C2709.6 1650.26 2711.68 1654.94 2713.24 1658.58L2716.63 1665.09L2765.8 1666.39C2820.44 1667.95 2825.91 1669.25 2828.51 1683.82C2830.85 1696.31 2827.73 1706.2 2815.76 1724.41C2801.19 1746.27 2796.5 1764.48 2801.19 1779.31C2805.35 1792.06 2813.68 1806.37 2821.48 1813.14C2824.34 1816 2826.95 1819.38 2826.95 1821.2C2826.95 1822.76 2834.75 1832.39 2844.12 1842.28C2860.25 1859.19 2883.93 1889.63 2891.47 1902.64C2902.66 1922.42 2906.04 1938.29 2905.78 1968.21C2905.52 2019.21 2892.25 2046.01 2841.52 2097.52L2823.3 2116.52H2961.72H3100.15L3107.95 2105.59C3114.2 2097 3115.76 2092.32 3115.76 2081.65C3115.76 2069.42 3114.72 2067.08 3105.87 2058.49C3100.41 2053.29 3094.68 2048.87 3093.12 2048.87C3084.79 2048.87 3073.61 2038.72 3067.36 2025.97C3061.12 2012.96 3060.86 2010.36 3061.9 1977.84C3062.68 1944.79 3065.28 1929.18 3073.09 1911.75C3075.17 1907.32 3076.73 1902.38 3076.73 1901.08C3076.73 1899.52 3078.29 1895.1 3080.37 1890.93C3082.45 1887.03 3085.83 1879.48 3087.92 1874.54C3095.46 1856.59 3100.93 1844.62 3104.57 1837.59C3106.39 1833.95 3107.95 1829.01 3107.95 1826.67C3107.95 1824.58 3109.77 1818.34 3112.11 1812.88C3117.06 1801.69 3118.36 1798.56 3126.42 1778.27C3129.55 1770.46 3133.71 1760.32 3135.53 1755.63C3137.61 1751.21 3139.17 1746.53 3139.17 1744.97C3139.17 1743.66 3141 1738.98 3143.08 1735.08C3145.16 1730.92 3146.98 1725.71 3146.98 1723.37C3146.98 1721.03 3148.8 1715.56 3150.88 1711.66C3152.96 1707.5 3154.79 1702.29 3154.79 1699.95C3154.79 1697.61 3156.61 1692.15 3158.69 1688.24C3160.77 1684.08 3162.59 1678.36 3162.59 1675.5C3162.85 1672.63 3164.41 1667.43 3166.49 1663.79C3168.58 1660.14 3170.14 1654.16 3170.4 1650.26C3170.4 1646.35 3171.44 1642.71 3172.74 1641.67C3174.3 1640.89 3176.12 1634.65 3177.16 1627.88C3177.94 1621.12 3179.76 1614.35 3181.06 1613.05C3183.15 1610.45 3184.45 1604.2 3191.21 1566.22C3198.24 1527.19 3199.54 1515.48 3197.98 1498.57C3197.2 1488.42 3195.63 1458.76 3194.85 1432.48C3193.55 1392.15 3194.07 1382.52 3197.72 1370.03C3203.96 1349.74 3209.42 1333.61 3213.59 1323.72C3215.67 1319.3 3217.23 1314.09 3217.23 1312.27C3217.23 1310.45 3218.79 1304.2 3220.87 1298.22C3225.56 1284.95 3230.24 1253.73 3230.24 1237.08C3230.24 1221.2 3224 1191.8 3218.53 1180.35C3216.19 1175.67 3208.64 1166.04 3202.14 1159.02C3185.49 1141.07 3166.75 1134.56 3138.13 1136.38C3126.94 1137.16 3116.54 1138.98 3114.98 1140.55C3113.41 1142.11 3109.51 1143.41 3106.65 1143.41C3094.16 1143.41 3058.51 1176.45 3052.53 1193.36C3050.19 1200.13 3043.16 1199.09 3040.3 1191.28C3036.14 1180.61 3037.18 1153.55 3042.38 1140.81C3050.19 1120.77 3054.87 1114.01 3073.35 1096.31C3082.97 1086.69 3093.12 1076.28 3095.72 1072.9C3102.23 1064.05 3101.45 1053.64 3093.38 1047.4C3086.62 1041.93 3084.27 1041.93 2940.39 1041.93C2803.79 1041.93 2793.64 1042.45 2783.75 1046.88ZM2740.56 1180.09C2766.84 1186.08 2775.95 1194.4 2783.49 1219.12C2787.4 1232.13 2787.66 1234.99 2784.02 1248.52C2781.93 1256.59 2780.11 1265.7 2780.11 1268.3C2780.11 1271.16 2778.55 1277.14 2776.47 1281.83C2774.39 1286.51 2770.75 1295.1 2768.4 1300.82C2766.06 1306.55 2761.12 1316.95 2757.48 1324.24C2735.62 1366.91 2729.9 1376.54 2725.21 1378.1C2719.49 1380.18 2718.71 1378.88 2716.89 1364.57C2715.06 1353.12 2709.6 1331 2697.89 1291.72C2685.14 1247.74 2683.58 1229.53 2690.87 1206.63C2695.55 1191.54 2701.8 1184.52 2713.76 1180.35C2724.17 1176.71 2726.25 1176.71 2740.56 1180.09ZM3168.05 1187.9C3180.28 1196.49 3186.01 1213.4 3186.01 1239.94C3186.01 1252.43 3184.97 1263.35 3183.67 1264.4C3182.37 1265.18 3180.28 1272.46 3179.24 1280.53C3178.46 1288.59 3175.86 1298.22 3174.04 1301.86C3171.96 1305.51 3170.4 1310.19 3170.4 1312.27C3170.4 1314.09 3168.58 1321.64 3166.23 1329.18C3163.89 1336.47 3160.51 1347.66 3158.43 1354.16C3156.35 1360.67 3154.79 1368.47 3154.79 1371.59C3154.79 1380.96 3146.46 1378.88 3139.17 1367.69C3130.59 1354.68 3119.92 1335.17 3111.59 1317.73C3094.94 1282.09 3091.56 1268.82 3091.3 1237.08C3091.04 1211.58 3091.56 1209.24 3097.54 1202.21C3110.55 1187.12 3120.7 1182.7 3141.26 1182.7C3156.61 1182.44 3162.07 1183.48 3168.05 1187.9Z" fill="#4D2678"/>
<path d="M458.961 1071.86C447.252 1078.36 445.691 1082.26 445.951 1102.04C446.212 1122.59 452.716 1146.53 462.864 1164.74C472.751 1182.7 475.873 1196.75 475.613 1225.37C475.613 1277.15 465.726 1296.66 413.688 1350.26C385.587 1379.14 372.318 1397.87 366.594 1416.09C357.487 1446.79 365.293 1613.05 378.822 1674.19C380.384 1680.7 382.725 1692.41 384.026 1700.21C385.587 1708.02 387.669 1715.56 389.23 1716.87C390.531 1718.43 391.572 1721.81 391.572 1724.41C391.572 1727.01 393.133 1732.48 395.214 1736.12C397.036 1740.02 402.5 1751.21 407.443 1761.36C421.494 1790.5 451.675 1828.75 487.061 1863.09C507.096 1882.35 519.065 1895.62 518.024 1897.44C515.942 1901.08 506.055 1901.6 506.055 1898.48C506.055 1897.18 503.974 1895.1 501.112 1893.79C483.939 1885.47 437.885 1844.1 410.045 1812.09C398.076 1798.3 394.174 1802.73 382.205 1842.02C376.221 1862.31 373.358 1873.24 364.772 1913.57C362.951 1921.37 361.65 1947.65 361.65 1972.11V2016.34L511.259 2017.12C665.551 2017.9 688.188 2017.12 688.188 2011.4C688.188 2009.58 682.724 1996.83 675.959 1983.56L663.47 1959.1L662.949 1921.37C662.689 1900.56 662.429 1882.87 662.429 1881.83C662.169 1881.05 658.786 1878.96 654.623 1877.66C629.905 1869.08 619.758 1819.38 629.385 1755.11C634.589 1721.55 634.329 1721.55 682.464 1720.51C715.508 1719.73 720.191 1719.21 723.313 1714.78C726.436 1710.62 726.175 1708.54 720.711 1699.17C717.069 1693.45 712.906 1685.64 711.605 1682C710.044 1678.62 707.442 1674.97 706.141 1673.93C704.58 1673.15 703.279 1667.17 703.019 1660.92C702.758 1651.04 704.58 1646.61 717.069 1628.66C749.332 1581.83 748.812 1575.06 708.483 1521.46C684.025 1489.46 681.943 1482.43 685.846 1449.91C687.407 1436.38 688.188 1411.66 687.667 1395.01C686.887 1365.09 686.887 1364.83 678.301 1355.98C669.194 1346.62 650.2 1338.55 637.191 1338.55C627.043 1338.55 605.187 1331.26 598.683 1325.8C587.494 1315.91 583.331 1297.96 590.877 1291.72C593.999 1288.85 598.683 1288.85 615.595 1291.46C643.175 1295.62 646.037 1293.8 653.062 1268.3C655.924 1257.63 661.388 1244.62 665.551 1239.16C673.357 1228.49 674.918 1214.18 669.714 1201.43C666.592 1194.4 662.169 1170.21 656.965 1134.82C653.322 1109.58 647.078 1089.55 640.053 1081.48C634.329 1074.98 632.247 1074.46 605.708 1072.64C590.357 1071.86 552.369 1070.29 521.666 1069.51C475.353 1068.21 464.425 1068.73 458.961 1071.86ZM495.648 1488.16C498.249 1491.28 499.55 1516.78 501.112 1586.51C503.713 1709.06 502.152 1702.82 545.084 1762.66C557.052 1779.31 557.833 1783.47 549.507 1783.47C545.084 1783.47 535.457 1775.41 515.942 1755.37C500.851 1740.02 487.842 1724.93 487.061 1722.33C481.597 1703.34 480.036 1677.32 479.516 1592.23C478.995 1518.34 479.516 1494.66 482.118 1489.98C486.021 1483.22 490.964 1482.69 495.648 1488.16Z" fill="#4D2678"/>
<path d="M857.831 1138.72C856.27 1140.55 854.189 1145.49 853.148 1149.65C852.107 1153.82 849.765 1160.32 847.944 1163.96C845.863 1167.61 844.301 1172.81 844.301 1175.15C844.301 1177.49 843.261 1180.09 841.96 1181.14C840.659 1181.92 838.577 1186.34 837.537 1191.02C836.756 1195.45 834.414 1202.73 832.593 1207.15C830.772 1211.32 827.129 1220.16 824.787 1226.67C822.185 1233.17 818.543 1243.06 816.461 1248.78C814.119 1254.51 810.737 1262.83 808.916 1267.52C806.834 1271.94 805.273 1277.41 805.273 1279.75C805.273 1281.83 803.452 1288.07 801.11 1293.54C798.768 1299 795.126 1306.81 793.565 1311.23C791.743 1315.39 788.881 1321.9 787.58 1325.54C786.019 1329.18 782.116 1338.55 778.994 1346.36C776.132 1354.16 771.969 1364.05 770.147 1368.47C764.944 1380.7 762.082 1387.47 751.674 1412.7C746.47 1425.45 739.185 1442.37 735.802 1449.91C732.42 1457.72 730.078 1465.26 730.599 1467.08C732.42 1472.03 748.812 1479.05 757.919 1479.05C762.342 1479.05 774.571 1480.87 784.978 1483.22C801.63 1487.12 825.047 1487.64 970.493 1487.64C1113.6 1487.64 1139.88 1486.86 1157.83 1483.22C1169.28 1480.87 1182.29 1479.05 1186.97 1479.05C1191.65 1479.05 1200.5 1477.49 1206.49 1475.41C1212.73 1473.33 1220.8 1470.99 1224.96 1470.21C1233.81 1468.12 1233.81 1463.7 1225.48 1450.43C1221.84 1444.71 1218.97 1439.24 1218.97 1437.94C1218.97 1436.64 1209.87 1417.65 1198.68 1395.53C1187.49 1373.42 1176.04 1349.48 1172.92 1342.45C1169.8 1335.17 1163.03 1320.08 1158.09 1308.89C1152.89 1297.44 1148.72 1286.25 1148.72 1283.91C1148.72 1281.57 1146.9 1277.41 1144.82 1274.54C1142.74 1271.94 1140.92 1267.26 1140.92 1264.14C1140.92 1261.27 1139.1 1256.59 1137.01 1253.73C1134.93 1251.13 1133.11 1247.22 1133.11 1245.4C1133.11 1243.32 1131.55 1238.12 1129.47 1233.69C1127.39 1229.01 1123.22 1217.82 1120.36 1208.46C1117.24 1199.09 1113.86 1189.2 1112.56 1186.34C1111.26 1183.48 1107.61 1173.59 1104.23 1164.48C1093.56 1135.86 1099.29 1137.16 970.233 1136.12C883.07 1135.6 860.173 1136.12 857.831 1138.72Z" fill="#4D2678"/>
<path d="M1898.07 1511.84C1875.43 1522.24 1852.8 1525.89 1780.98 1531.09C1758.87 1532.65 1739.09 1534.47 1737.53 1534.99C1735.71 1535.77 1734.15 1538.64 1734.15 1541.5C1734.15 1547.22 1767.97 1613.57 1789.05 1649.48C1791.65 1653.64 1796.86 1663.01 1800.5 1670.29C1804.14 1677.32 1809.6 1686.68 1812.21 1691.11C1815.07 1695.27 1818.19 1700.73 1818.97 1702.82C1821.57 1708.28 1846.55 1750.69 1848.37 1752.25C1849.15 1753.03 1851.24 1755.89 1853.06 1758.76C1854.88 1761.62 1861.12 1772.03 1867.37 1782.17C1893.39 1825.1 1937.1 1922.16 1937.1 1936.99C1937.1 1948.95 1953.75 1969.77 1972.22 1981.22C1986.53 1990.06 1987.31 1990.58 2008.39 2011.14C2031.29 2033.78 2033.11 2036.12 2067.71 2088.94C2079.68 2106.89 2097.37 2121.46 2116.63 2129.01C2121.57 2131.09 2135.62 2133.69 2147.85 2135.25C2172.05 2138.11 2299.8 2136.55 2307.35 2133.43C2310.73 2131.87 2311.77 2128.49 2311.77 2117.3C2311.77 2104.55 2309.69 2097.78 2301.1 2082.69C2299.8 2080.61 2297.72 2076.19 2296.16 2072.8C2292 2063.44 2271.96 2044.96 2259.47 2039.24C2243.34 2031.43 2213.94 2025.45 2193.12 2025.45C2137.96 2025.19 2105.7 1993.97 2073.7 1910.97C2065.89 1890.41 2058.09 1872.46 2046.64 1848.52C2042.21 1839.15 2038.57 1830.57 2038.57 1829.53C2038.57 1828.49 2035.19 1820.42 2031.03 1811.57C2016.46 1780.09 2007.35 1759.8 2007.35 1758.5C2007.35 1757.98 2003.97 1750.17 2000.06 1741.32C1995.9 1732.22 1990.44 1719.73 1988.09 1713.22C1985.49 1706.72 1981.85 1698.13 1979.77 1694.23C1977.69 1690.07 1976.13 1684.86 1976.13 1682.26C1976.13 1679.92 1974.3 1675.5 1972.22 1672.63C1970.14 1670.03 1968.32 1665.35 1968.32 1662.23C1968.32 1659.36 1966.5 1654.68 1964.42 1651.82C1962.34 1649.22 1960.51 1644.53 1960.51 1641.67C1960.51 1638.81 1958.69 1633.08 1956.61 1628.92C1954.53 1625.02 1952.71 1619.55 1952.71 1617.21C1952.71 1614.87 1950.89 1609.67 1948.81 1605.5C1946.72 1601.6 1944.9 1595.88 1944.9 1593.02C1944.9 1590.41 1943.34 1584.95 1941.26 1581.05C1939.44 1577.14 1936.84 1569.08 1935.8 1563.09C1934.76 1556.85 1932.93 1551.38 1931.63 1550.34C1930.33 1549.56 1929.29 1546.44 1929.29 1543.32C1929.29 1539.94 1926.95 1531.09 1924.35 1523.28C1918.62 1506.89 1913.68 1504.81 1898.07 1511.84Z" fill="#4D2678"/>
<path d="M909.869 1513.4C908.048 1515.22 906.747 1520.68 906.747 1525.89C906.747 1535.51 915.333 1550.34 927.302 1560.75C930.164 1563.61 932.766 1566.74 932.766 1568.04C932.766 1569.34 927.562 1575.32 921.318 1581.57C895.299 1607.33 884.631 1649.74 896.079 1682C904.405 1705.68 909.089 1712.7 924.96 1726.49C933.547 1733.78 939.791 1741.06 939.011 1742.1C938.23 1743.4 875.264 1744.45 798.768 1744.45H659.827L655.924 1750.17C652.542 1754.85 651.761 1764.22 651.761 1797.26C651.761 1834.73 652.282 1839.41 656.965 1846.18C660.608 1851.12 665.551 1853.99 672.056 1855.03C693.652 1858.93 693.652 1858.67 685.586 1881.57C678.561 1901.6 678.561 1930.74 685.586 1950.78C690.009 1963.26 698.075 1979.92 709.003 1998.65C711.605 2003.59 714.207 2009.58 722.533 2031.95C725.135 2038.98 727.997 2056.15 728.777 2069.68C730.338 2093.88 729.298 2103.25 720.972 2135.51C718.89 2144.1 717.849 2152.42 718.37 2154.24C719.15 2156.07 724.874 2158.93 731.379 2160.75C749.332 2165.95 761.821 2161.27 768.326 2146.96C779.514 2123.54 781.856 2116.78 781.856 2110.53C781.856 2106.89 783.677 2095.96 786.019 2086.07C792.003 2059.8 789.662 2025.19 778.734 1978.62C768.326 1934.64 767.546 1927.1 771.448 1910.45C778.213 1882.35 790.182 1866.73 812.298 1858.41C824.007 1853.99 835.975 1853.72 989.487 1853.72H1153.93L1164.33 1860.23C1188.53 1875.58 1196.34 1891.97 1194.78 1925.28C1194 1938.03 1191.65 1955.72 1189.57 1964.31C1187.23 1972.89 1184.11 1984.6 1182.81 1990.32C1181.25 1996.05 1179.95 2022.59 1179.95 2049.13C1179.95 2089.46 1180.73 2100.12 1184.89 2112.87C1191.13 2132.65 1200.24 2151.9 1205.18 2155.8C1209.87 2159.97 1244.47 2159.71 1248.38 2155.8C1250.46 2153.72 1249.94 2149.04 1246.81 2139.15C1236.93 2107.93 1234.59 2096.22 1234.59 2074.89C1234.59 2050.69 1240.31 2029.61 1253.84 2004.9C1257.48 1998.39 1265.55 1983.04 1271.53 1970.81L1282.72 1948.69L1282.46 1920.07C1282.2 1896.4 1281.16 1889.37 1276.48 1879.22C1273.35 1872.46 1269.71 1866.21 1268.41 1865.43C1266.85 1864.65 1265.81 1861.53 1265.81 1858.93C1265.81 1855.03 1268.67 1853.72 1280.9 1852.16C1297.55 1850.34 1308.74 1845.4 1311.08 1839.41C1313.42 1833.43 1312.9 1751.47 1310.56 1748.09C1303.8 1737.68 1294.43 1737.68 1082.11 1743.4C1051.41 1744.45 1029.04 1743.92 1028.26 1742.62C1027.47 1741.32 1033.72 1733.26 1042.31 1724.93C1064.94 1703.34 1070.67 1689.02 1070.67 1654.42C1070.67 1629.44 1070.15 1626.06 1062.6 1610.19C1057.92 1600.56 1049.33 1587.55 1043.09 1581.31C1036.84 1575.06 1031.64 1569.08 1031.64 1568.56C1031.64 1567.78 1036.32 1562.57 1042.05 1556.85C1052.45 1546.44 1060.26 1532.13 1060.26 1523.02C1060.26 1520.42 1057.66 1516.52 1054.53 1514.44C1049.59 1510.8 1038.14 1510.27 980.901 1510.27C931.465 1510.27 912.211 1511.06 909.869 1513.4Z" fill="#4D2678"/>
<path d="M2707.78 1693.19C2699.71 1702.82 2686.44 1753.29 2686.44 1775.15C2686.44 1799.61 2678.9 1811.83 2638.05 1853.73C2607.87 1884.43 2591.47 1905.5 2583.15 1923.98C2577.42 1936.47 2576.64 1941.93 2576.64 1967.69C2576.64 1991.63 2577.68 1999.69 2582.37 2013.22C2591.47 2037.68 2609.17 2062.92 2637.53 2091.54C2651.58 2105.59 2663.03 2118.86 2663.03 2120.94C2663.03 2122.76 2660.16 2125.62 2656.52 2126.92C2648.46 2130.05 2643.51 2139.93 2645.85 2148.78C2649.24 2162.05 2656.78 2163.35 2727.81 2163.35C2804.05 2163.35 2811.07 2161.79 2811.33 2144.88C2811.33 2136.29 2799.89 2125.62 2784.8 2120.16C2782.19 2119.38 2780.11 2116 2780.11 2112.61C2780.11 2107.93 2785.06 2103.77 2804.31 2092.32C2861.29 2058.23 2881.59 2026.23 2881.59 1969.51C2881.59 1923.72 2869.88 1901.6 2812.9 1842.28C2803.53 1832.39 2795.72 1823.28 2795.72 1821.72C2795.72 1820.42 2792.34 1813.4 2787.92 1806.37C2780.63 1794.4 2780.11 1792.32 2780.11 1766.56C2780.11 1751.73 2781.15 1738.98 2782.45 1737.94C2783.75 1737.16 2785.58 1733 2786.62 1728.83C2787.66 1724.41 2789.22 1721.03 2790.52 1721.03C2791.56 1721.03 2793.9 1717.91 2795.46 1713.74C2797.02 1709.84 2799.63 1704.9 2801.19 1702.55C2803.01 1700.21 2803.53 1696.31 2802.75 1693.97C2801.19 1690.33 2795.2 1689.81 2755.91 1689.81C2722.61 1689.81 2709.86 1690.59 2707.78 1693.19ZM2774.65 1870.9C2783.75 1882.35 2781.67 1888.33 2760.86 1910.45C2750.45 1921.63 2741.34 1932.56 2740.56 1934.38C2740.04 1936.47 2738.22 1936.99 2736.4 1935.94C2734.32 1934.64 2733.28 1926.06 2733.28 1911.23V1888.33L2745.25 1876.36C2759.04 1862.31 2766.84 1860.75 2774.65 1870.9ZM2711.94 1881.57C2713.24 1884.17 2715.06 1895.62 2715.84 1907.06C2716.63 1918.51 2718.97 1932.82 2721.57 1938.81C2725.21 1947.91 2725.73 1957.28 2724.69 2002.55L2723.65 2055.37H2717.41C2711.42 2055.37 2711.16 2054.59 2709.6 2031.69C2708.56 2018.42 2706.48 2001.77 2704.92 1994.49C2703.36 1986.94 2702.05 1974.45 2702.05 1966.65C2702.05 1958.84 2700.23 1948.17 2697.89 1942.71C2695.81 1937.51 2693.21 1923.46 2692.43 1911.75C2691.13 1894.31 2691.65 1889.11 2695.29 1883.65C2700.23 1876.1 2708.56 1875.06 2711.94 1881.57ZM2653.4 1897.7C2663.55 1904.46 2667.19 1910.19 2673.43 1930.74C2676.56 1940.63 2680.72 1952.6 2682.8 1957.28C2686.96 1966.91 2687.48 1977.58 2684.1 1979.66C2682.8 1980.44 2679.16 1977.84 2675.78 1973.93C2672.39 1970.03 2666.41 1964.83 2662.77 1962.48C2651.58 1955.46 2640.39 1944.01 2635.97 1935.16C2629.98 1922.94 2630.5 1906.02 2637.53 1898.74C2644.29 1891.45 2644.29 1891.45 2653.4 1897.7ZM2836.83 1932.3C2840.22 1938.03 2840.48 1940.89 2837.87 1949.73C2833.71 1963.26 2812.38 1986.42 2803.79 1986.42C2797.02 1986.42 2797.02 1988.24 2802.49 1946.35C2804.83 1929.7 2809.77 1924.24 2822.52 1924.76C2830.33 1925.28 2833.45 1926.84 2836.83 1932.3ZM2773.61 1942.71C2781.67 1946.35 2784.01 1954.16 2781.67 1969.77C2779.85 1983.82 2775.17 1990.32 2758.26 2002.81C2745.77 2011.92 2744.73 2012.18 2741.6 2008.02C2739 2004.63 2738.48 1998.39 2739.78 1984.34C2741.6 1963.53 2746.81 1952.08 2758.52 1944.53C2767.1 1938.81 2765.28 1938.81 2773.61 1942.71ZM2646.37 1976.27C2660.16 1982.52 2698.15 2018.42 2695.55 2022.85C2692.69 2027.27 2664.85 2025.97 2657.82 2021.03C2643.51 2011.4 2621.92 1991.11 2620.62 1986.16C2619.84 1983.04 2621.4 1979.4 2625.82 1976.01C2629.46 1973.15 2632.84 1970.81 2633.1 1970.81C2633.36 1970.81 2639.35 1973.41 2646.37 1976.27ZM2814.2 2009.84C2822.26 2014.26 2820.18 2023.89 2808.21 2036.38C2795.98 2048.87 2784.8 2052.51 2750.97 2055.37C2731.2 2056.93 2730.68 2056.41 2738.22 2041.58C2743.69 2030.91 2747.59 2028.57 2771.01 2021.55C2779.59 2018.95 2788.44 2015.3 2790.52 2013.74C2798.59 2007.24 2806.65 2005.94 2814.2 2009.84ZM2683.84 2037.42C2695.81 2045.48 2698.93 2051.73 2694.51 2058.75C2692.69 2061.88 2691.13 2061.62 2684.88 2058.49C2675.26 2053.55 2662.25 2038.98 2664.33 2035.86C2666.67 2031.95 2676.82 2032.74 2683.84 2037.42Z" fill="#4D2678"/>
<path d="M905.186 1879.22C903.364 1880.52 903.104 1888.07 904.405 1903.16C905.706 1915.39 907.788 1941.67 909.349 1961.7C910.91 1981.74 912.992 2003.85 913.772 2010.62C915.073 2022.33 914.553 2023.63 905.706 2031.95L896.079 2041.06L852.628 2041.58L809.176 2042.36L808.395 2073.59C808.135 2090.76 808.395 2107.41 809.176 2110.53L810.477 2116.52H899.722H989.227L995.211 2110.01C1000.94 2103.77 1001.2 2102.73 999.374 2071.76C998.334 2054.07 996.512 2031.43 995.211 2021.55C993.91 2011.4 991.569 1982.78 990.008 1957.8C988.446 1932.82 986.365 1904.72 985.324 1895.36L983.503 1878.44L945.775 1877.92C924.96 1877.4 906.747 1877.92 905.186 1879.22Z" fill="#4D2678"/>
<path d="M803.191 1903.68C796.947 1911.23 791.743 1929.44 793.044 1938.81C796.687 1967.17 802.671 1999.17 805.273 2006.46C808.135 2014.78 808.916 2015.04 822.185 2015.04C831.812 2015.04 836.496 2014 837.276 2011.14C840.659 2002.55 835.975 1976.79 824.527 1943.49C822.445 1937.51 820.884 1931.26 820.884 1929.44C820.884 1927.62 819.323 1922.42 817.242 1917.99C815.16 1913.31 813.079 1907.58 812.038 1904.98C810.477 1899.78 807.094 1899.26 803.191 1903.68Z" fill="#4D2678"/>
<path d="M259.395 2309.58C257.054 2311.92 256.273 2345.48 256.273 2444.62C256.273 2562.48 256.794 2576.79 260.436 2578.09C267.982 2580.95 309.612 2579.91 312.995 2576.53C315.076 2574.45 316.117 2562.74 316.117 2541.41C316.117 2513.83 316.637 2509.4 320.8 2507.32C323.142 2506.02 335.891 2504.72 348.64 2504.46C381.685 2504.2 405.102 2501.6 411.086 2497.95C413.948 2496.13 419.412 2493.79 423.575 2492.75C427.478 2491.97 430.6 2489.89 430.6 2488.59C430.6 2487.03 432.161 2485.99 434.243 2485.99C439.967 2485.99 456.099 2466.21 463.124 2450.86C471.71 2432.13 472.491 2393.62 464.425 2369.94C455.058 2343.14 429.039 2321.03 398.077 2313.74C366.594 2306.45 265.64 2303.33 259.395 2309.58ZM394.174 2375.41L408.484 2389.98V2408.71C408.484 2431.09 402.5 2441.49 385.327 2449.82C375.96 2454.24 369.716 2454.76 345.778 2454.24L317.418 2453.46L316.637 2410.53C316.377 2387.11 316.637 2366.3 317.158 2364.48C318.198 2361.88 326.524 2361.09 349.421 2361.09H380.123L394.174 2375.41Z" fill="#4D2678"/>
<path d="M550.027 2311.92C545.864 2319.98 548.206 2494.05 552.889 2506.8C562.516 2533.34 580.209 2558.58 592.958 2564.3C596.081 2565.6 600.244 2567.69 602.325 2568.99C616.376 2577.05 624.702 2579.39 647.858 2582.26C669.975 2584.86 677.78 2584.6 698.335 2581.22C711.865 2578.87 724.094 2576.01 725.655 2574.45C726.956 2573.15 729.818 2571.85 731.639 2571.85C741.006 2571.85 764.163 2550.77 773.01 2534.12C787.84 2505.76 789.662 2492.75 789.662 2398.56C789.662 2327.79 788.881 2311.66 786.019 2309.32C783.677 2307.24 773.53 2306.45 756.878 2306.98L731.119 2307.76L729.818 2400.12C728.257 2490.15 728.257 2492.75 722.533 2502.12C719.15 2507.32 712.125 2514.87 706.921 2519.03C697.815 2526.05 695.994 2526.32 668.674 2526.32C641.094 2526.32 639.793 2526.05 630.166 2518.77C611.432 2504.46 611.692 2506.02 610.131 2401.42L608.83 2307.76L580.99 2306.98C554.711 2306.19 552.889 2306.72 550.027 2311.92Z" fill="#4D2678"/>
<path d="M883.33 2311.4C881.769 2314.78 880.728 2361.88 880.728 2446.7V2577.05L886.712 2578.35C889.835 2579.13 903.104 2579.65 915.854 2579.13L939.271 2578.35L940.051 2546.09C940.311 2527.62 941.873 2512.26 943.694 2510.18C945.515 2507.84 953.321 2506.8 967.631 2506.8H988.967L999.374 2520.85C1004.84 2528.66 1011.34 2537.5 1013.42 2540.89C1015.51 2544.01 1022.53 2553.9 1029.04 2562.48L1040.74 2578.35L1070.67 2579.13C1107.35 2579.91 1110.48 2578.35 1101.37 2564.82C1097.73 2559.36 1091.48 2551.29 1087.84 2547.13C1083.94 2542.71 1078.47 2535.16 1075.35 2530.22C1072.23 2525.27 1068.58 2519.81 1067.02 2518.51C1062.34 2514.35 1055.06 2502.12 1055.06 2498.47C1055.06 2496.65 1059.22 2492.23 1064.42 2488.85C1091.48 2470.37 1108.13 2420.94 1099.29 2386.33C1097.73 2381.13 1095.64 2372.8 1094.34 2367.86C1088.62 2345.48 1059.74 2319.98 1032.94 2313.74C1006.14 2307.5 995.472 2306.71 942.653 2306.71C889.314 2306.45 885.932 2306.71 883.33 2311.4ZM1016.81 2365.26C1019.93 2367.6 1026.43 2374.62 1031.12 2380.87C1038.66 2391.02 1039.44 2393.62 1039.44 2410.79C1039.44 2428.48 1038.92 2430.3 1030.34 2440.71C1018.89 2454.5 1010.04 2457.36 976.218 2457.36C938.49 2457.36 940.572 2460.23 940.572 2407.67C940.572 2366.3 940.832 2363.44 945.515 2361.61C948.377 2360.57 964.249 2360.05 980.641 2360.31C1004.58 2360.83 1012.12 2361.88 1016.81 2365.26Z" fill="#4D2678"/>
<path d="M1189.05 2309.58C1188.27 2311.4 1188.01 2372.54 1188.27 2445.66L1189.05 2578.35H1217.67H1246.29L1247.08 2544.79C1247.34 2526.31 1248.9 2509.66 1250.2 2508.1C1252.02 2506.02 1267.37 2504.46 1295.47 2503.68C1327.73 2502.64 1339.96 2501.34 1346.47 2497.95C1351.15 2495.61 1356.09 2493.79 1357.4 2493.79C1358.7 2493.79 1365.98 2489.11 1373.53 2483.38C1407.61 2457.62 1416.46 2402.46 1393.82 2356.41C1389.14 2346.52 1368.58 2327.01 1356.09 2320.5C1348.03 2316.34 1338.4 2313.74 1315.24 2309.06C1295.99 2305.41 1190.35 2305.93 1189.05 2309.58ZM1323.05 2370.2C1337.62 2382.43 1342.82 2389.2 1345.17 2399.6C1349.59 2419.9 1337.1 2444.62 1320.45 2448.26C1316.03 2449.3 1312.12 2451.12 1311.34 2452.42C1310.3 2453.72 1296.51 2454.76 1280.12 2454.76C1255.66 2454.76 1250.46 2453.98 1249.16 2450.6C1247.08 2445.14 1247.08 2365 1249.42 2362.92C1250.2 2361.88 1264.77 2361.09 1281.68 2361.09H1312.12L1323.05 2370.2Z" fill="#4D2678"/>
<path d="M1490.09 2309.06L1484.37 2311.4L1484.89 2444.88L1485.67 2578.35H1574.13H1662.6V2553.63V2528.92L1605.36 2527.62C1573.87 2526.58 1547.85 2525.79 1547.59 2525.53C1547.07 2525.27 1546.81 2477.14 1546.81 2418.34C1546.81 2315.82 1546.55 2311.66 1541.87 2309.06C1535.63 2305.93 1498.42 2305.93 1490.09 2309.06Z" fill="#4D2678"/>
<path d="M1749.76 2310.36C1746.9 2313.74 1746.38 2339.76 1746.64 2444.88C1746.9 2516.69 1747.94 2576.27 1749.24 2577.57C1750.28 2578.61 1791.13 2579.39 1839.79 2579.13L1927.99 2578.35V2553.63V2528.92L1868.93 2527.62C1831.46 2526.84 1808.82 2525.27 1807 2523.45C1805.18 2521.63 1804.4 2511.22 1804.92 2496.13L1805.7 2471.68L1860.34 2470.37C1923.05 2468.81 1918.62 2471.15 1916.28 2440.97L1914.98 2424.84L1863.2 2424.06C1829.38 2423.8 1810.13 2422.5 1807.78 2420.42C1805.18 2418.34 1804.4 2410.79 1804.92 2389.98L1805.7 2362.4L1866.85 2361.09L1927.99 2359.79V2335.34C1927.99 2311.4 1927.73 2310.62 1921.49 2309.06C1917.84 2308.02 1878.55 2306.98 1834.06 2306.71C1762.51 2306.19 1752.88 2306.71 1749.76 2310.36Z" fill="#4D2678"/>
<path d="M2178.29 2309.58C2174.13 2312.7 2173.87 2323.11 2174.39 2445.66L2175.17 2578.35L2244.12 2579.13C2315.41 2579.65 2324 2578.87 2346.38 2567.69C2350.54 2565.6 2354.96 2564.04 2356.26 2564.04C2364.07 2564.04 2400.24 2532.56 2405.7 2521.11C2407 2518.25 2409.08 2514.09 2410.38 2512C2418.19 2498.21 2420.79 2489.63 2423.65 2467.25C2426.51 2446.96 2426.51 2438.37 2423.91 2423.02C2420.79 2404.03 2419.49 2400.38 2408.04 2375.41C2396.07 2349.13 2356.26 2319.72 2324.78 2313.74C2284.45 2305.93 2186.88 2303.33 2178.29 2309.58ZM2320.88 2374.62C2344.81 2390.5 2356 2406.11 2361.47 2431.35C2367.71 2459.45 2360.69 2484.68 2341.43 2502.9C2329.98 2513.57 2325.3 2517.21 2322.96 2517.21C2321.92 2517.21 2317.49 2519.03 2313.07 2521.37C2304.49 2526.05 2252.71 2529.7 2240.48 2526.58L2233.71 2525.01V2444.62C2233.71 2400.64 2234.49 2363.7 2235.54 2362.92C2236.32 2361.88 2251.41 2361.09 2268.84 2361.09H2300.58L2320.88 2374.62Z" fill="#4D2678"/>
<path d="M2599.28 2310.62C2581.59 2316.34 2561.55 2325.45 2561.55 2327.79C2561.55 2329.09 2559.99 2329.87 2558.17 2329.87C2556.09 2329.87 2547.76 2336.64 2539.7 2344.7C2517.58 2366.82 2503.27 2398.3 2500.41 2432.65C2496.51 2479.74 2519.92 2533.34 2554.79 2555.72C2575.86 2569.51 2574.82 2568.73 2592.78 2576.01C2610.73 2583.04 2648.98 2585.38 2676.3 2581.22C2690.09 2579.13 2703.62 2576.53 2706.22 2574.97C2709.08 2573.67 2716.63 2570.03 2723.39 2566.9C2743.95 2557.28 2780.11 2520.07 2780.11 2508.36C2780.11 2506.8 2781.41 2503.94 2782.97 2502.38C2784.28 2501.08 2787.92 2488.07 2791.04 2474.02C2795.98 2449.3 2795.98 2447.48 2792.08 2424.84C2789.74 2412.09 2786.1 2397.78 2784.28 2393.62C2770.22 2361.62 2766.32 2355.63 2752.53 2343.4C2737.44 2329.87 2710.64 2314.26 2702.58 2314.26C2699.97 2314.26 2696.33 2312.7 2694.77 2310.88C2689.31 2305.67 2615.67 2305.41 2599.28 2310.62ZM2665.89 2361.09C2674.74 2361.09 2680.2 2362.92 2687.48 2368.12C2704.4 2380.35 2725.21 2402.99 2726.77 2410.79C2727.81 2414.95 2729.64 2418.86 2730.94 2419.64C2735.36 2422.5 2733.54 2462.83 2728.59 2476.62C2722.09 2493.53 2704.92 2512.79 2689.83 2520.07C2678.64 2525.53 2673.95 2526.32 2646.11 2526.06C2619.58 2526.06 2613.33 2525.01 2605.26 2520.59C2589.65 2512 2577.94 2500.56 2569.62 2485.21C2562.07 2472.46 2561.55 2469.33 2561.55 2446.18C2561.55 2424.32 2562.33 2419.64 2568.32 2408.71C2581.59 2383.47 2607.35 2363.18 2629.2 2360.83C2637.01 2359.79 2645.85 2359.53 2648.72 2360.05C2651.58 2360.57 2659.38 2361.09 2665.89 2361.09Z" fill="#4D2678"/>
<path d="M2962.24 2312.44C2952.88 2315.82 2941.95 2320.24 2937.53 2322.59C2933.36 2325.19 2927.38 2328.05 2924.26 2329.61C2921.13 2330.91 2912.81 2337.94 2905.26 2345.22C2891.47 2358.49 2878.46 2382.43 2873 2404.03C2869.36 2418.08 2869.62 2468.81 2873.26 2483.64C2876.38 2496.65 2888.61 2520.85 2898.76 2534.38C2906.56 2544.53 2928.16 2560.92 2942.73 2567.69C2948.45 2570.29 2955.22 2573.67 2958.08 2574.97C2963.29 2577.57 2981.5 2581.22 3003.35 2583.82C3019.23 2585.9 3057.47 2581.22 3072.82 2575.23C3096.76 2566.12 3107.43 2559.62 3122.78 2544.79L3138.65 2528.92L3138.91 2482.34C3139.17 2450.86 3138.39 2434.73 3136.31 2432.39C3132.15 2427.44 3017.66 2427.18 3010.64 2432.13C3007 2434.73 3006.48 2438.89 3007 2456.06L3007.78 2476.88L3041.6 2478.18L3075.43 2479.48L3076.21 2496.91L3076.99 2514.35L3065.02 2519.55C3030.15 2534.9 2985.66 2531.78 2958.34 2512C2933.36 2493.79 2921.92 2449.56 2933.62 2415.73C2938.05 2402.46 2957.56 2376.71 2963.02 2376.71C2964.33 2376.71 2969.79 2373.06 2975.25 2368.9C2984.88 2361.35 2985.92 2361.09 3012.72 2361.09H3040.56L3061.12 2375.41C3072.3 2383.21 3082.71 2389.72 3084.01 2389.72C3085.57 2389.72 3094.94 2380.35 3105.35 2368.9L3124.08 2348.09L3114.72 2339.24C3103.79 2329.35 3083.23 2318.68 3060.6 2311.4C3036.92 2303.85 2985.4 2304.37 2962.24 2312.44Z" fill="#4D2678"/>
</svg>
