<svg width="2414" height="2414" viewBox="0 0 2414 2414" fill="none" xmlns="http://www.w3.org/2000/svg">
<g clip-path="url(#clip0_2_25)">
<path d="M-2503.83 -1630.43C-2549.65 -1607.03 -2555.5 -1603.61 -2603.76 -1571.93C-2659.33 -1534.88 -2724.16 -1480.28 -2758.28 -1441.76C-2783.63 -1413 -2830.43 -1347.68 -2830.43 -1341.34C-2830.43 -1339.88 -2833.35 -1334.52 -2837.25 -1330.62C-2847.49 -1318.92 -2880.15 -1257.98 -2895.26 -1222.88C-2899.64 -1213.62 -2906.47 -1198.02 -2910.37 -1187.78C-2914.76 -1178.03 -2918.17 -1167.79 -2918.17 -1164.87C-2918.17 -1161.94 -2921.09 -1152.68 -2924.99 -1143.91C-2954.73 -1074.19 -2960.09 -886.995 -2935.23 -774.384C-2930.84 -754.397 -2925.48 -735.872 -2922.56 -733.434C-2920.12 -730.509 -2918.17 -723.197 -2918.17 -716.859C-2918.17 -710.522 -2914.76 -699.31 -2910.86 -692.485C-2906.96 -685.172 -2898.67 -667.135 -2891.85 -652.51C-2841.15 -542.336 -2742.2 -438.012 -2628.13 -374.638C-2612.04 -365.863 -2590.6 -352.213 -2579.87 -344.413C-2569.64 -337.101 -2557.45 -330.763 -2553.06 -330.763C-2548.67 -330.763 -2540.87 -327.351 -2536 -323.451C-2530.64 -319.551 -2522.84 -316.139 -2518.45 -316.139C-2514.06 -316.139 -2503.83 -312.726 -2496.03 -308.826C-2488.23 -304.926 -2463.37 -300.539 -2440.95 -298.589C-2413.65 -296.151 -2400 -293.226 -2398.05 -288.351C-2396.59 -284.939 -2403.9 -269.339 -2414.62 -253.739C-2458.01 -189.39 -2496.03 -89.4535 -2493.1 -47.0414L-2491.64 -26.0791L-2196.73 -23.6416C-1986.15 -21.6917 -1898.89 -19.7417 -1892.07 -15.3542C-1868.67 -2.19186 -1863.79 8.53303 -1859.89 60.2075C-1842.35 293.718 -1834.55 360.992 -1825.77 366.842C-1821.87 369.279 -1778 371.229 -1727.79 371.229H-1637.13L-1626.89 354.655C-1621.04 345.88 -1616.65 336.13 -1616.65 333.205C-1616.65 322.48 -1580.58 268.368 -1562.54 251.793C-1542.56 233.756 -1536.22 231.806 -1524.04 239.606C-1517.7 243.506 -1517.7 245.943 -1525.5 257.643C-1532.81 269.83 -1550.85 305.417 -1563.52 334.667C-1572.29 353.679 -1577.17 376.592 -1574.24 383.904C-1572.78 387.804 -1565.96 394.142 -1558.65 398.042C-1551.82 401.454 -1524.04 422.416 -1497.23 444.354C-1470.42 466.291 -1437.27 493.103 -1424.11 503.828C-1382.18 537.465 -1266.66 646.664 -1219.37 697.851C-1153.08 769.025 -993.193 863.112 -960.045 850.437C-950.784 847.025 -945.422 842.637 -888.389 792.913C-823.069 736.363 -801.134 709.551 -771.886 649.102C-768.961 642.277 -765.062 635.939 -763.112 634.477C-759.7 631.552 -754.338 621.314 -716.316 545.265C-681.706 476.528 -673.419 466.291 -666.595 483.841C-660.746 499.441 -665.133 544.29 -674.394 568.665C-692.43 615.952 -721.678 676.889 -742.639 711.013C-761.162 741.238 -818.682 798.763 -879.127 847.512C-942.497 898.211 -968.332 928.436 -968.332 950.373C-968.332 960.123 -966.382 974.261 -963.945 982.548C-961.508 990.836 -955.658 1010.82 -951.271 1026.91C-930.798 1100.52 -927.873 1110.76 -921.536 1129.28C-917.636 1140.5 -914.712 1154.63 -914.712 1160.97C-914.712 1167.8 -911.787 1178.52 -908.375 1185.35C-904.475 1192.66 -900.088 1208.75 -898.626 1221.42C-896.676 1234.1 -893.751 1247.26 -891.801 1250.18C-889.364 1253.6 -885.464 1266.76 -882.052 1280.41C-879.127 1293.57 -873.278 1318.92 -868.891 1336.47C-864.503 1354.02 -858.654 1376.93 -856.704 1387.66C-854.267 1398.38 -849.88 1417.88 -846.467 1431.53C-830.381 1497.34 -824.532 1524.15 -805.033 1619.22C-801.621 1636.77 -794.797 1666.02 -790.897 1685.03C-786.51 1703.55 -783.098 1725.98 -783.098 1733.78C-783.098 1742.07 -780.66 1756.2 -777.736 1765.46C-771.886 1784.48 -760.675 1851.26 -754.338 1904.4C-749.463 1947.79 -730.94 1987.28 -697.305 2024.81C-657.333 2069.66 -631.498 2117.44 -621.749 2165.21C-619.311 2177.4 -615.412 2191.54 -612.975 2196.9C-610.537 2202.26 -604.688 2216.4 -599.813 2228.59C-594.451 2240.77 -577.39 2263.68 -561.304 2280.26C-535.956 2306.1 -527.182 2311.46 -495.497 2321.21C-460.4 2332.42 -452.113 2332.91 -309.775 2332.91C-146.476 2333.4 -144.526 2332.91 -144.526 2305.12C-144.526 2273.43 -174.261 2206.16 -199.609 2180.32C-215.695 2163.26 -260.542 2140.84 -278.09 2140.84C-283.452 2140.84 -299.051 2137.42 -312.212 2133.52C-325.374 2129.62 -343.41 2126.21 -351.697 2126.21C-388.743 2126.21 -447.238 2083.8 -466.737 2042.85C-493.547 1986.79 -519.87 1882.95 -519.87 1833.71C-519.87 1819.09 -523.282 1791.79 -527.182 1772.78C-531.081 1754.25 -534.494 1717.69 -534.494 1691.85C-534.494 1666.02 -536.931 1623.12 -539.368 1596.79C-546.193 1529.52 -548.63 1392.53 -543.755 1331.59C-541.806 1303.32 -538.393 1258.47 -536.931 1231.66C-531.569 1141.47 -511.096 1075.17 -478.923 1044.95C-470.637 1037.15 -429.69 1010.34 -388.256 985.473C-289.789 926.486 -243.481 890.412 -206.434 845.562C-180.111 813.387 -144.526 760.25 -144.526 753.425C-144.526 751.475 -141.114 743.676 -137.215 735.388C-127.465 714.426 -110.404 659.826 -110.404 649.589C-110.404 645.202 -108.454 639.352 -106.017 636.427C-103.092 633.989 -99.1927 623.264 -96.268 612.539C-93.8307 601.815 -87.0063 580.852 -81.1568 566.227C-75.3072 551.603 -69.4577 534.54 -67.9954 528.69C-66.533 522.84 -61.1709 514.065 -56.2963 509.678C-43.135 497.491 -35.3356 506.753 -38.7478 530.64C-40.6977 540.878 -45.0848 571.102 -48.9845 597.915C-64.0957 698.339 -67.0204 711.501 -90.4185 761.225C-115.279 814.362 -165 883.099 -208.384 924.536C-246.405 960.611 -304.413 1004.49 -324.886 1012.77C-340.485 1019.11 -396.055 1044.95 -402.88 1049.33C-406.779 1051.77 -413.604 1055.18 -417.503 1057.13C-446.264 1069.81 -470.149 1101.5 -463.325 1119.05C-459.912 1127.82 -434.077 1129.28 -416.529 1121.97C-410.192 1119.53 -371.195 1115.15 -329.761 1112.22C-193.272 1102.47 -161.587 1099.06 -150.863 1093.7C-145.014 1090.28 -135.752 1087.85 -130.39 1087.85C-124.541 1087.85 -106.505 1081.51 -89.931 1073.71C-72.87 1065.91 -55.8089 1058.6 -51.9092 1056.65C-40.6977 1051.77 -24.6115 1042.02 -16.8122 1035.69C-13.4 1032.27 3.66111 1023.01 20.7222 1014.72C48.0199 1001.07 57.7691 999.123 106.027 996.685C154.773 994.735 173.297 996.198 232.767 1008.39C246.416 1010.82 246.416 1010.82 243.003 994.735C241.054 985.473 236.179 971.336 231.792 963.536C227.892 955.248 223.018 945.498 221.068 941.599C219.118 937.699 208.394 916.736 196.695 895.287C174.759 855.312 174.272 853.362 161.11 824.6C125.526 744.163 139.175 660.314 198.157 592.552C216.681 571.59 256.165 540.878 296.624 516.015C341.47 487.741 342.445 487.253 381.442 460.441C431.163 426.316 479.909 402.429 518.418 393.654C558.877 383.904 576.913 383.904 576.913 392.679C576.913 398.529 547.665 419.491 523.292 431.679C513.056 436.066 501.357 443.866 467.235 466.291C451.148 477.016 434.087 487.741 429.213 490.666C359.994 531.128 278.101 589.627 243.978 623.752C204.982 661.776 195.72 683.714 195.72 736.363C196.207 782.675 195.72 782.188 257.627 910.886C275.663 947.936 291.749 982.548 294.187 987.911C296.137 993.273 301.499 1005.95 305.886 1016.19C310.273 1026.42 313.685 1036.66 313.685 1039.59C313.685 1042.51 316.61 1051.77 320.022 1060.06C323.922 1068.83 330.746 1088.82 335.621 1104.91C365.843 1207.28 399.965 1248.72 455.536 1248.72C477.959 1248.72 486.246 1246.28 503.307 1234.1C528.167 1216.06 558.877 1169.26 580.813 1117.1C589.099 1096.62 593.487 1083.46 612.985 1015.21C617.372 1001.07 620.784 981.086 620.784 971.336C620.784 961.586 624.196 943.061 628.096 929.899C631.996 916.736 635.408 894.799 635.408 881.149C635.408 851.412 648.082 759.763 657.831 721.738C661.731 707.113 664.656 690.051 664.656 684.201C664.656 658.851 698.778 576.465 717.789 555.99C730.462 542.34 745.574 545.753 744.111 561.352C743.624 574.515 736.312 614.977 728.513 649.102C726.075 661.289 720.226 692.976 715.839 719.788C711.452 746.601 705.602 781.7 702.677 797.788C700.24 813.875 695.853 844.587 693.416 866.037C685.129 939.161 667.093 1033.74 655.881 1060.06C652.469 1067.86 650.032 1077.12 650.032 1081.02C650.032 1084.92 648.082 1091.75 645.157 1096.62C642.72 1101.01 634.921 1117.1 628.096 1131.72C621.272 1146.35 611.035 1164.87 606.16 1173.16C600.798 1180.96 594.949 1191.2 592.999 1195.1C591.537 1199 584.712 1209.23 578.375 1217.52C572.038 1225.81 567.164 1234.58 567.164 1237.02C567.164 1239.46 580.813 1249.21 597.386 1258.47C653.931 1290.64 697.803 1337.93 744.111 1416.91C774.334 1468.09 772.384 1464.68 788.958 1488.57C808.456 1517.33 857.689 1566.08 884.012 1583.14C896.199 1591.43 921.546 1605.08 940.07 1613.85C959.081 1623.12 978.092 1632.38 982.966 1634.82C991.741 1639.2 1016.6 1645.05 1064.37 1653.83C1094.59 1659.68 1150.65 1656.75 1176.49 1647.98C1216.46 1634.82 1230.11 1625.55 1317.36 1553.4C1353.92 1523.67 1375.86 1500.27 1383.66 1482.72C1391.94 1464.19 1391.94 1461.76 1384.63 1445.67C1379.76 1436.41 1368.06 1416.91 1357.82 1403.26C1347.59 1389.12 1337.84 1374.49 1335.89 1370.59C1333.94 1366.69 1328.09 1356.46 1322.72 1348.66C1317.36 1340.37 1310.54 1328.18 1307.61 1320.38C1304.69 1313.07 1300.79 1307.22 1298.35 1307.22C1296.4 1307.22 1292.99 1303.32 1291.53 1298.44C1287.14 1286.74 1281.78 1277.97 1237.42 1212.65C1173.56 1119.05 1174.05 1120.02 1174.54 1078.1C1175.02 1053.72 1177.46 1036.66 1182.82 1026.91C1187.21 1018.62 1191.11 1010.82 1191.11 1008.87C1191.11 1004.97 1215.97 948.911 1227.18 926.974C1241.81 898.699 1251.07 849.462 1248.14 813.875C1245.71 778.775 1242.78 769.025 1224.75 729.538C1219.87 718.813 1211.58 700.289 1206.22 688.101C1189.16 649.589 1175.51 629.114 1102.88 532.103C1063.88 479.941 1023.91 423.391 1013.68 406.817C993.69 373.667 965.905 348.317 935.195 336.13C914.235 327.842 855.739 319.067 795.782 315.655C762.147 313.705 755.81 311.755 720.226 290.305C699.265 277.63 680.742 265.443 679.279 263.98C677.817 262.518 644.182 239.118 603.723 212.793C505.256 147.469 341.47 25.1079 294.187 -18.7667C289.8 -22.6667 279.563 -31.4416 271.764 -37.779C255.677 -50.9414 185.971 -112.366 182.071 -116.266C179.634 -118.703 112.364 -177.69 85.0668 -201.577C79.2173 -206.94 66.0559 -218.64 56.3067 -227.902C11.9479 -269.339 -83.1066 -330.763 -103.092 -330.763C-107.48 -330.763 -123.566 -335.151 -139.652 -340.513C-164.025 -348.801 -190.348 -350.751 -313.675 -355.138C-470.149 -360.501 -476.973 -360.988 -568.616 -372.201C-670.007 -384.388 -811.37 -411.688 -841.593 -424.85C-845.492 -426.8 -857.679 -430.212 -868.403 -432.65C-906.425 -441.912 -938.597 -452.15 -948.346 -457.025C-953.708 -459.95 -962.97 -462.387 -969.307 -462.387C-975.644 -462.387 -982.956 -464.337 -985.393 -466.287C-988.318 -468.725 -1016.59 -478.962 -1048.76 -489.199C-1080.94 -498.949 -1115.06 -510.162 -1124.32 -513.574C-1140.89 -519.912 -1170.14 -528.199 -1225.22 -543.311C-1240.82 -547.699 -1263.24 -554.036 -1275.43 -557.936C-1287.62 -561.836 -1303.22 -564.761 -1310.04 -564.761C-1317.35 -564.761 -1331 -568.174 -1340.26 -572.073C-1350.01 -575.973 -1366.59 -579.386 -1377.31 -579.386C-1388.03 -579.386 -1402.66 -581.823 -1410.46 -584.748C-1417.77 -587.673 -1447.99 -591.573 -1477.73 -594.011C-1506.97 -596.448 -1558.16 -600.836 -1591.3 -603.761C-1634.69 -607.661 -1669.3 -607.661 -1718.04 -603.761C-1754.6 -600.836 -1802.37 -597.423 -1823.82 -595.961C-1859.89 -594.011 -1893.53 -588.648 -1962.75 -574.511C-1977.37 -571.586 -1999.31 -567.686 -2011.49 -565.249C-2023.68 -563.299 -2041.23 -559.399 -2050.49 -556.474C-2059.75 -553.549 -2080.71 -547.211 -2096.8 -542.824C-2112.89 -537.949 -2145.55 -527.711 -2169.43 -519.912C-2205.02 -508.212 -2218.18 -505.774 -2244.99 -507.724C-2333.7 -513.574 -2440.95 -564.274 -2517.96 -636.423C-2569.15 -683.71 -2591.57 -713.935 -2618.38 -769.509C-2625.21 -784.134 -2633 -799.734 -2634.95 -803.634C-2637.39 -808.021 -2640.8 -818.258 -2642.27 -827.033C-2644.22 -835.321 -2648.12 -843.608 -2650.55 -845.071C-2652.99 -847.021 -2654.94 -852.383 -2654.94 -857.258C-2654.94 -862.62 -2657.87 -876.27 -2661.76 -887.483C-2665.18 -899.183 -2671.03 -935.257 -2674.44 -967.919C-2686.14 -1085.89 -2660.3 -1218 -2605.71 -1320.38C-2603.76 -1324.28 -2596.93 -1337.44 -2591.57 -1349.63C-2546.24 -1444.2 -2501.88 -1501.24 -2409.75 -1580.21C-2375.63 -1609.95 -2369.29 -1624.09 -2384.89 -1639.2C-2390.74 -1645.05 -2402.44 -1647 -2432.17 -1647C-2467.76 -1646.51 -2475.56 -1645.05 -2503.83 -1630.43ZM912.285 948.911C919.597 952.811 946.407 963.048 971.755 971.336C997.103 979.623 1021.96 990.348 1026.84 994.248C1045.36 1010.82 1029.27 1039.1 1001 1039.1C961.031 1038.61 910.822 1005.95 894.736 969.386C881.575 940.624 886.937 934.774 912.285 948.911Z" fill="#4D2678"/>
<path d="M1578.66 248.265C1555.78 258.506 1550.91 267.771 1555.3 290.203C1557.24 300.932 1564.55 311.66 1578.18 322.388C1589.37 331.654 1611.76 352.135 1627.83 368.228C1663.85 404.314 1674.07 430.159 1674.07 483.801C1674.07 537.443 1666.28 538.906 1629.78 492.579C1607.38 464.295 1586.94 444.301 1579.64 443.814C1577.2 443.814 1571.36 440.888 1567.47 437.474C1541.67 415.53 1444.79 406.752 1411.21 423.332C1357.66 449.665 1331.37 489.653 1318.71 564.263C1313.85 590.597 1313.85 604.251 1318.23 620.831C1321.15 633.022 1323.58 651.553 1323.58 661.306C1323.58 679.349 1341.11 739.33 1348.9 748.596C1350.84 751.034 1352.79 757.373 1352.79 762.25C1352.79 767.126 1355.71 778.342 1359.6 786.632C1379.08 831.009 1382 865.144 1382 1043.62C1382 1182.12 1383.46 1222.59 1389.3 1245.02C1393.19 1260.63 1396.6 1276.23 1396.6 1280.14C1396.6 1287.45 1421.91 1345.97 1431.16 1360.6C1433.6 1364.5 1437.01 1371.33 1438.47 1375.23C1439.93 1379.13 1443.82 1387.91 1446.74 1394.73L1453.07 1406.92L1545.07 1409.36C1647.3 1412.29 1657.52 1414.73 1662.39 1442.04C1666.77 1465.44 1660.93 1483.97 1638.54 1518.11C1611.28 1559.07 1602.51 1593.21 1611.28 1621C1619.07 1644.9 1634.64 1671.72 1649.25 1684.4C1654.6 1689.76 1659.47 1696.1 1659.47 1699.52C1659.47 1702.44 1674.07 1720.48 1691.6 1739.02C1721.78 1770.71 1766.08 1827.77 1780.19 1852.15C1801.13 1889.21 1807.46 1918.96 1806.97 1975.04C1806.48 2070.62 1781.66 2120.85 1686.73 2217.4L1652.65 2253H1911.63H2170.6L2185.21 2232.52C2196.89 2216.43 2199.81 2207.65 2199.81 2187.65C2199.81 2164.74 2197.86 2160.35 2181.31 2144.25C2171.09 2134.5 2160.38 2126.21 2157.46 2126.21C2141.88 2126.21 2120.95 2107.19 2109.27 2083.3C2097.58 2058.91 2097.1 2054.04 2099.04 1993.08C2100.5 1931.15 2105.37 1901.89 2119.98 1869.22C2123.87 1860.93 2126.79 1851.66 2126.79 1849.22C2126.79 1846.3 2129.71 1838.01 2133.61 1830.21C2137.5 1822.89 2143.83 1808.75 2147.72 1799.48C2161.84 1765.84 2172.06 1743.4 2178.88 1730.24C2182.29 1723.41 2185.21 1714.15 2185.21 1709.76C2185.21 1705.86 2188.61 1694.15 2193 1683.91C2202.24 1662.94 2204.68 1657.09 2219.77 1619.05C2225.61 1604.42 2233.4 1585.41 2236.81 1576.63C2240.7 1568.34 2243.62 1559.56 2243.62 1556.63C2243.62 1554.2 2247.03 1545.42 2250.92 1538.1C2254.82 1530.3 2258.23 1520.55 2258.23 1516.16C2258.23 1511.77 2261.63 1501.53 2265.53 1494.21C2269.42 1486.41 2272.83 1476.66 2272.83 1472.27C2272.83 1467.88 2276.24 1457.64 2280.13 1450.33C2284.03 1442.52 2287.43 1431.8 2287.43 1426.43C2287.92 1421.07 2290.84 1411.31 2294.74 1404.49C2298.63 1397.66 2301.55 1386.44 2302.04 1379.13C2302.04 1371.81 2303.98 1364.99 2306.42 1363.04C2309.34 1361.57 2312.75 1349.87 2314.69 1337.19C2316.15 1324.51 2319.56 1311.83 2322 1309.39C2325.89 1304.52 2328.32 1292.81 2340.98 1221.62C2354.12 1148.47 2356.56 1126.53 2353.64 1094.83C2352.18 1075.81 2349.26 1020.22 2347.8 970.965C2345.36 895.379 2346.34 877.336 2353.15 853.928C2364.83 815.892 2375.06 785.657 2382.85 767.126C2386.74 758.836 2389.66 749.083 2389.66 745.67C2389.66 742.256 2392.58 730.553 2396.48 719.337C2405.24 694.466 2414 635.948 2414 604.739C2414 574.992 2402.32 519.887 2392.09 498.431C2387.71 489.653 2373.6 471.61 2361.43 458.443C2330.27 424.795 2295.22 412.604 2241.68 416.017C2220.74 417.48 2201.27 420.894 2198.35 423.82C2195.43 426.746 2188.13 429.184 2182.77 429.184C2159.41 429.184 2092.72 491.116 2081.52 522.813C2077.14 535.492 2064 533.541 2058.64 518.912C2050.85 498.918 2052.8 448.202 2062.53 424.308C2077.14 386.758 2085.9 374.079 2120.46 340.919C2138.47 322.876 2157.46 303.37 2162.33 297.031C2174.5 280.45 2173.04 260.944 2157.95 249.241C2145.29 239 2140.91 239 1871.71 239C1616.15 239 1597.16 239.975 1578.66 248.265ZM1497.85 497.943C1547.02 509.159 1564.06 524.764 1578.18 571.091C1585.48 595.473 1585.96 600.837 1579.15 626.195C1575.25 641.312 1571.85 658.38 1571.85 663.257C1571.85 668.621 1568.93 679.837 1565.03 688.615C1561.14 697.392 1554.32 713.485 1549.94 724.213C1545.56 734.941 1536.31 754.447 1529.5 768.102C1488.61 848.077 1477.9 866.12 1469.13 869.046C1458.42 872.947 1456.96 870.509 1453.56 843.688C1450.15 822.231 1439.93 780.781 1418.02 707.145C1394.17 624.732 1391.25 590.597 1404.88 547.683C1413.64 519.4 1425.32 506.233 1447.71 498.431C1467.19 491.603 1471.08 491.603 1497.85 497.943ZM2297.66 512.572C2320.54 528.665 2331.25 560.362 2331.25 610.103C2331.25 633.51 2329.3 653.991 2326.86 655.942C2324.43 657.405 2320.54 671.059 2318.59 686.176C2317.13 701.294 2312.26 719.337 2308.85 726.164C2304.96 732.991 2302.04 741.769 2302.04 745.67C2302.04 749.083 2298.63 763.225 2294.25 777.367C2289.87 791.021 2283.54 811.99 2279.64 824.182C2275.75 836.373 2272.83 851.002 2272.83 856.854C2272.83 874.41 2257.25 870.509 2243.62 849.54C2227.56 825.157 2207.6 788.583 2192.02 755.91C2160.87 689.102 2154.54 664.232 2154.05 604.739C2153.57 556.949 2154.54 552.56 2165.74 539.393C2190.07 511.109 2209.06 502.819 2247.52 502.819C2276.24 502.332 2286.46 504.282 2297.66 512.572Z" fill="#4D2678"/>
<path d="M-81.2297 1121.13C-123.593 1140.61 -165.957 1147.43 -300.351 1157.17C-341.741 1160.09 -378.748 1163.5 -381.67 1164.48C-385.078 1165.94 -388 1171.3 -388 1176.65C-388 1187.37 -324.698 1311.58 -285.256 1378.79C-280.387 1386.59 -270.648 1404.12 -263.831 1417.76C-257.014 1430.91 -246.788 1448.45 -241.919 1456.73C-236.563 1464.52 -230.719 1474.75 -229.259 1478.65C-224.389 1488.88 -177.643 1568.27 -174.235 1571.19C-172.774 1572.65 -168.878 1578.01 -165.47 1583.37C-162.061 1588.73 -150.375 1608.21 -138.688 1627.21C-89.9946 1707.58 -8.1892 1889.26 -8.1892 1917.02C-8.1892 1939.43 22.9748 1978.4 57.5473 1999.83C84.3288 2016.39 85.7896 2017.36 125.232 2055.84C168.082 2098.22 171.491 2102.6 236.253 2201.48C258.652 2235.09 291.764 2262.37 327.797 2276.49C337.049 2280.39 363.344 2285.26 386.23 2288.18C431.515 2293.54 670.601 2290.62 684.722 2284.77C691.052 2281.85 693 2275.52 693 2254.57C693 2230.71 689.104 2218.04 673.036 2189.79C670.601 2185.89 666.705 2177.61 663.784 2171.28C655.993 2153.75 618.499 2119.16 595.126 2108.45C564.936 2093.83 509.912 2082.63 470.957 2082.63C367.726 2082.14 307.346 2023.69 247.453 1868.31C232.845 1829.83 218.236 1796.23 196.811 1751.41C188.533 1733.88 181.716 1717.81 181.716 1715.86C181.716 1713.91 175.386 1698.81 167.595 1682.25C140.327 1623.31 123.284 1585.32 123.284 1582.88C123.284 1581.91 116.954 1567.3 109.65 1550.74C101.859 1533.69 91.6329 1510.31 87.2504 1498.13C82.3811 1485.95 75.564 1469.88 71.6685 1462.57C67.773 1454.78 64.8513 1445.04 64.8513 1440.17C64.8513 1435.78 61.4428 1427.5 57.5473 1422.14C53.6518 1417.27 50.2432 1408.51 50.2432 1402.66C50.2432 1397.3 46.8347 1388.54 42.9392 1383.18C39.0437 1378.31 35.6351 1369.54 35.6351 1364.18C35.6351 1358.82 32.2266 1348.11 28.3311 1340.31C24.4356 1333.01 21.027 1322.78 21.027 1318.4C21.027 1314.01 17.6185 1304.27 13.723 1296.48C9.82747 1289.17 6.41891 1278.45 6.41891 1273.1C6.41891 1268.23 3.49729 1258 -0.398206 1250.69C-3.80676 1243.38 -8.67613 1228.28 -10.6239 1217.08C-12.5716 1205.39 -15.9802 1195.16 -18.4149 1193.21C-20.8496 1191.75 -22.7973 1185.91 -22.7973 1180.06C-22.7973 1173.73 -27.1797 1157.17 -32.0491 1142.56C-42.7617 1111.87 -52.0135 1107.97 -81.2297 1121.13Z" fill="#4D2678"/>
<path d="M1436.55 1460.34C1421.45 1478.37 1396.6 1572.92 1396.6 1613.85C1396.6 1659.67 1382.47 1682.57 1305.98 1761.04C1249.46 1818.55 1218.77 1858.02 1203.18 1892.63C1192.46 1916.02 1191 1926.25 1191 1974.5C1191 2019.34 1192.95 2034.45 1201.72 2059.79C1218.77 2105.6 1251.9 2152.88 1305.01 2206.49C1331.31 2232.81 1352.75 2257.66 1352.75 2261.56C1352.75 2264.97 1347.39 2270.33 1340.57 2272.77C1325.47 2278.62 1316.21 2297.14 1320.6 2313.71C1326.93 2338.56 1341.06 2341 1474.06 2341C1616.81 2341 1629.97 2338.08 1630.46 2306.4C1630.46 2290.31 1609.02 2270.33 1580.76 2260.1C1575.89 2258.64 1571.99 2252.3 1571.99 2245.96C1571.99 2237.19 1581.25 2229.39 1617.3 2207.95C1724 2144.11 1762 2084.16 1762 1977.91C1762 1892.14 1740.08 1850.71 1633.38 1739.59C1615.84 1721.07 1601.22 1704.02 1601.22 1701.09C1601.22 1698.66 1594.89 1685.5 1586.61 1672.34C1572.97 1649.92 1571.99 1646.02 1571.99 1597.77C1571.99 1569.99 1573.94 1546.11 1576.38 1544.16C1578.81 1542.7 1582.22 1534.9 1584.17 1527.1C1586.12 1518.82 1589.04 1512.48 1591.48 1512.48C1593.43 1512.48 1597.81 1506.64 1600.74 1498.84C1603.66 1491.53 1608.53 1482.27 1611.45 1477.88C1614.87 1473.49 1615.84 1466.18 1614.38 1461.8C1611.45 1454.97 1600.25 1454 1526.68 1454C1464.32 1454 1440.45 1455.46 1436.55 1460.34ZM1561.76 1793.2C1578.81 1814.65 1574.91 1825.86 1535.94 1867.28C1516.45 1888.24 1499.4 1908.71 1497.94 1912.12C1496.96 1916.02 1493.55 1916.99 1490.14 1915.05C1486.24 1912.61 1484.3 1896.53 1484.3 1868.75V1825.86L1506.71 1803.44C1532.53 1777.12 1547.14 1774.2 1561.76 1793.2ZM1444.34 1813.19C1446.78 1818.06 1450.19 1839.5 1451.65 1860.95C1453.11 1882.39 1457.5 1909.2 1462.37 1920.41C1469.19 1937.46 1470.17 1955.01 1468.22 2039.81L1466.27 2138.74H1454.58C1443.37 2138.74 1442.88 2137.28 1439.96 2094.39C1438.01 2069.54 1434.11 2038.35 1431.19 2024.7C1428.27 2010.57 1425.83 1987.17 1425.83 1972.55C1425.83 1957.93 1422.42 1937.95 1418.04 1927.72C1414.14 1917.97 1409.27 1891.65 1407.8 1869.72C1405.37 1837.07 1406.34 1827.32 1413.16 1817.09C1422.42 1802.95 1438.01 1801 1444.34 1813.19ZM1334.72 1843.4C1353.73 1856.07 1360.55 1866.8 1372.24 1905.3C1378.09 1923.82 1385.88 1946.24 1389.78 1955.01C1397.57 1973.04 1398.55 1993.02 1392.21 1996.92C1389.78 1998.38 1382.96 1993.51 1376.62 1986.2C1370.29 1978.89 1359.08 1969.14 1352.26 1964.76C1331.31 1951.6 1310.36 1930.15 1302.08 1913.58C1290.88 1890.68 1291.85 1859 1305.01 1845.35C1317.67 1831.71 1317.67 1831.71 1334.72 1843.4ZM1678.2 1908.22C1684.53 1918.94 1685.02 1924.3 1680.15 1940.88C1672.35 1966.22 1632.4 2009.59 1616.33 2009.59C1603.66 2009.59 1603.66 2013 1613.89 1934.54C1618.28 1903.35 1627.53 1893.11 1651.41 1894.09C1666.02 1895.06 1671.87 1897.99 1678.2 1908.22ZM1559.81 1927.72C1574.91 1934.54 1579.3 1949.16 1574.91 1978.4C1571.5 2004.72 1562.73 2016.9 1531.07 2040.3C1507.68 2057.35 1505.73 2057.84 1499.89 2050.04C1495.01 2043.71 1494.04 2032.01 1496.48 2005.69C1499.89 1966.71 1509.63 1945.26 1531.55 1931.13C1547.63 1920.41 1544.22 1920.41 1559.81 1927.72ZM1321.57 1990.59C1347.39 2002.28 1418.52 2069.54 1413.65 2077.82C1408.29 2086.11 1356.16 2083.67 1343.01 2074.41C1316.21 2056.38 1275.77 2018.37 1273.34 2009.11C1271.88 2003.26 1274.8 1996.43 1283.08 1990.1C1289.9 1984.74 1296.24 1980.35 1296.72 1980.35C1297.21 1980.35 1308.42 1985.23 1321.57 1990.59ZM1635.81 2053.46C1650.92 2061.74 1647.02 2079.77 1624.61 2103.17C1601.71 2126.56 1580.76 2133.38 1517.42 2138.74C1480.4 2141.67 1479.42 2140.69 1493.55 2112.91C1503.78 2092.93 1511.09 2088.55 1554.94 2075.39C1571.02 2070.51 1587.58 2063.69 1591.48 2060.77C1606.58 2048.58 1621.69 2046.15 1635.81 2053.46ZM1391.73 2105.12C1414.14 2120.22 1419.98 2131.92 1411.7 2145.08C1408.29 2150.93 1405.37 2150.44 1393.68 2144.59C1375.65 2135.33 1351.29 2108.04 1355.19 2102.19C1359.57 2094.88 1378.57 2096.34 1391.73 2105.12Z" fill="#4D2678"/>
</g>
<defs>
<clipPath id="clip0_2_25">
<rect width="2414" height="2414" fill="white"/>
</clipPath>
</defs>
</svg>
